<?xml version="1.0" encoding="UTF-8" standalone="no"?>
<!-- Created with Inkscape (http://www.inkscape.org/) -->

<svg
   width="297mm"
   height="210mm"
   viewBox="0 0 297 210"
   version="1.1"
   id="svg1"
   inkscape:version="1.3.2 (1:1.3.2+202311252150+091e20ef0f)"
   sodipodi:docname="community noticeboard header.svg"
   inkscape:export-filename="eventsSignagePrintout.png"
   inkscape:export-xdpi="96"
   inkscape:export-ydpi="96"
   xml:space="preserve"
   xmlns:inkscape="http://www.inkscape.org/namespaces/inkscape"
   xmlns:sodipodi="http://sodipodi.sourceforge.net/DTD/sodipodi-0.dtd"
   xmlns="http://www.w3.org/2000/svg"
   xmlns:svg="http://www.w3.org/2000/svg"><sodipodi:namedview
     id="namedview1"
     pagecolor="#ffffff"
     bordercolor="#000000"
     borderopacity="0.25"
     inkscape:showpageshadow="2"
     inkscape:pageopacity="0.0"
     inkscape:pagecheckerboard="0"
     inkscape:deskcolor="#d1d1d1"
     inkscape:document-units="mm"
     inkscape:zoom="0.70299985"
     inkscape:cx="819.34584"
     inkscape:cy="373.3998"
     inkscape:window-width="1920"
     inkscape:window-height="1008"
     inkscape:window-x="1920"
     inkscape:window-y="0"
     inkscape:window-maximized="1"
     inkscape:current-layer="layer4" /><defs
     id="defs1" /><g
     inkscape:groupmode="layer"
     id="layer2"
     inkscape:label="CutOut"
     style="display:inline"><rect
       style="fill:#333333;stroke:#000000;stroke-width:0.432521"
       id="rect3"
       width="249.56747"
       height="149.09196"
       x="24.66353"
       y="29.067911" /></g><g
     inkscape:groupmode="layer"
     id="layer3"
     inkscape:label="Title"><text
       xml:space="preserve"
       style="font-size:9.36457px;font-family:Gayathri;-inkscape-font-specification:Gayathri;text-align:center;text-anchor:middle;fill:#008000;stroke:none;stroke-width:0.884842"
       x="153.93959"
       y="13.770548"
       id="text7"><tspan
         sodipodi:role="line"
         id="tspan7"
         style="text-align:center;text-anchor:middle;fill:#000000;stroke:none;stroke-width:0.884842"
         x="153.93959"
         y="13.770548">3D Printed Index Card Based Offer And Needs Wall</tspan><tspan
         sodipodi:role="line"
         style="text-align:center;text-anchor:middle;fill:#000000;stroke:none;stroke-width:0.884842"
         x="153.93959"
         y="25.476259"
         id="tspan8">Signage Printout (Cut and Fold)</tspan></text><text
       xml:space="preserve"
       style="font-size:5.18618px;font-family:Gayathri;-inkscape-font-specification:Gayathri;text-align:center;text-anchor:middle;fill:#000000;stroke:none;stroke-width:0.490032"
       x="151.29013"
       y="204.15399"
       id="text9"><tspan
         sodipodi:role="line"
         id="tspan9"
         style="stroke-width:0.490032"
         x="151.29013"
         y="204.15399" /></text><g
       id="g1"
       transform="matrix(1.7742034,0,0,1.7742034,3.4438547,9.7209495)"><text
         xml:space="preserve"
         style="font-size:2.59353px;font-family:Gayathri;-inkscape-font-specification:Gayathri;text-align:center;text-anchor:middle;fill:#000000;stroke:none;stroke-width:0.245057"
         x="80.251259"
         y="104.44824"
         id="text9-9-6"><tspan
           sodipodi:role="line"
           style="stroke-width:0.245057"
           x="80.251259"
           y="104.44824"
           id="tspan3-2">Designed By Brian Khuu 2023</tspan><tspan
           sodipodi:role="line"
           style="stroke-width:0.245057"
           x="80.251259"
           y="107.69016"
           id="tspan14-6">Source: https://github.com/mofosyne/OfflineOffersNeedsWall</tspan><tspan
           sodipodi:role="line"
           style="stroke-width:0.245057"
           x="80.251259"
           y="110.93207"
           id="tspan5-1">Inspired By: https://joelzaslofsky.com/offers-and-needs-market/</tspan></text></g></g><g
     inkscape:label="Needs"
     inkscape:groupmode="layer"
     id="layer1" /><g
     inkscape:groupmode="layer"
     id="layer4"
     inkscape:label="Offers"><text
       xml:space="preserve"
       style="font-size:3.18166px;font-family:Gayathri;-inkscape-font-specification:Gayathri;text-align:center;text-anchor:middle;fill:#000000;stroke:none;stroke-width:0.300629"
       x="111.32838"
       y="153.50452"
       id="text45"><tspan
         sodipodi:role="line"
         style="stroke-width:0.300629"
         x="111.32838"
         y="153.50452"
         id="tspan45" /></text><text
       xml:space="preserve"
       style="font-style:normal;font-variant:normal;font-weight:normal;font-stretch:normal;font-size:37.5539px;line-height:1;font-family:Gayathri;-inkscape-font-specification:Gayathri;font-variant-ligatures:normal;font-variant-position:normal;font-variant-caps:normal;font-variant-numeric:normal;font-variant-alternates:normal;font-variant-east-asian:normal;font-feature-settings:normal;font-variation-settings:normal;text-indent:0;text-align:center;text-decoration-line:none;text-decoration-style:solid;text-decoration-color:#000000;letter-spacing:normal;word-spacing:normal;text-transform:none;writing-mode:lr-tb;direction:ltr;text-orientation:mixed;dominant-baseline:auto;baseline-shift:baseline;text-anchor:middle;white-space:normal;opacity:1;vector-effect:none;fill:#ff7f2a;fill-opacity:1;stroke:none;stroke-width:6.36879;stroke-linecap:butt;stroke-linejoin:miter;stroke-miterlimit:4;stroke-dasharray:none;stroke-dashoffset:0;stroke-opacity:1;-inkscape-stroke:none;stop-color:#000000;stop-opacity:1"
       x="152.56479"
       y="133.0257"
       id="text13"><tspan
         sodipodi:role="line"
         style="font-style:normal;font-variant:normal;font-weight:bold;font-stretch:normal;font-size:37.5539px;line-height:1;font-family:Gayathri;-inkscape-font-specification:'Gayathri Bold';font-variant-ligatures:normal;font-variant-position:normal;font-variant-caps:normal;font-variant-numeric:normal;font-variant-alternates:normal;font-variant-east-asian:normal;font-feature-settings:normal;text-indent:0;text-align:center;text-decoration-line:none;text-decoration-style:solid;text-decoration-color:#000000;letter-spacing:normal;word-spacing:normal;text-transform:none;writing-mode:lr-tb;direction:ltr;text-orientation:mixed;dominant-baseline:auto;baseline-shift:baseline;white-space:normal;vector-effect:none;fill:#ff7f2a;fill-opacity:1;stroke:none;stroke-width:6.36879;stroke-linecap:butt;stroke-linejoin:miter;stroke-miterlimit:4;stroke-dasharray:none;stroke-dashoffset:0;stroke-opacity:1;-inkscape-stroke:none;stop-color:#000000;stop-opacity:1"
         x="152.56479"
         y="133.0257"
         id="tspan17">Community </tspan><tspan
         sodipodi:role="line"
         style="font-style:normal;font-variant:normal;font-weight:bold;font-stretch:normal;font-size:37.5539px;line-height:1;font-family:Gayathri;-inkscape-font-specification:'Gayathri Bold';font-variant-ligatures:normal;font-variant-position:normal;font-variant-caps:normal;font-variant-numeric:normal;font-variant-alternates:normal;font-variant-east-asian:normal;font-feature-settings:normal;text-indent:0;text-align:center;text-decoration-line:none;text-decoration-style:solid;text-decoration-color:#000000;letter-spacing:normal;word-spacing:normal;text-transform:none;writing-mode:lr-tb;direction:ltr;text-orientation:mixed;dominant-baseline:auto;baseline-shift:baseline;white-space:normal;vector-effect:none;fill:#ff7f2a;fill-opacity:1;stroke:none;stroke-width:6.36879;stroke-linecap:butt;stroke-linejoin:miter;stroke-miterlimit:4;stroke-dasharray:none;stroke-dashoffset:0;stroke-opacity:1;-inkscape-stroke:none;stop-color:#000000;stop-opacity:1"
         x="152.56479"
         y="170.57959"
         id="tspan1">Noticeboard</tspan></text><path
       d="m 147.05125,34.106072 c -0.51802,1.001264 -1.0766,1.937284 -1.24139,2.080384 -0.17653,0.15335 -0.5406,0.260045 -0.88729,0.260045 -0.3232,0 -0.7253,0.07369 -0.89367,0.163753 -0.27,0.144597 -0.4394,0.03491 -1.43902,-0.930672 -0.62322,-0.602117 -1.41035,-1.351349 -1.7493,-1.665038 l -0.61624,-0.570475 -1.09264,0.328701 c -0.60094,0.180701 -1.49312,0.481166 -1.98275,0.667653 l -0.88996,0.338959 -0.33598,1.985271 c -0.18485,1.091751 -0.39587,2.118861 -0.46913,2.282322 -0.0733,0.163453 -0.57864,0.523813 -1.12311,0.800951 l -0.9901,0.50359 -1.98499,-0.986544 c -1.09175,-0.542677 -2.05273,-0.98669 -2.13536,-0.98669 -0.17445,0 -2.98266,2.07072 -3.24702,2.394366 -0.12289,0.150383 -0.13879,0.399732 -0.0515,0.806299 0.22037,1.02607 0.45233,2.728261 0.45233,3.318942 0,0.497365 -0.10297,0.66736 -0.80837,1.334566 -0.44461,0.420539 -0.84492,0.764537 -0.88951,0.764537 -0.0447,0 -1.03499,-0.137305 -2.20075,-0.305074 l -2.1196,-0.30522 -0.53303,0.594241 c -0.29318,0.326776 -0.87821,1.093239 -1.29993,1.703387 l -0.76677,1.109292 0.28962,0.570612 c 0.84106,1.657171 1.64141,3.392655 1.64141,3.559091 0,0.32736 -0.2174,0.388133 -2.89767,0.809859 -1.13796,0.179058 -1.91677,0.312201 -5.20094,0.889503 -1.47113,0.258563 -3.04255,0.524558 -3.49207,0.591125 -0.44951,0.06664 -1.61972,0.265986 -2.60047,0.443119 -0.98075,0.177132 -2.15096,0.379525 -2.60047,0.449816 -0.44951,0.07025 -1.61972,0.26866 -2.60047,0.440736 -1.711267,0.300319 -2.345038,0.407754 -4.309364,0.730368 -0.490365,0.08057 -1.292804,0.219917 -1.783178,0.309829 -0.490374,0.08989 -1.292804,0.22928 -1.783178,0.30982 -1.735191,0.285014 -2.53628,0.420084 -3.41777,0.576417 -0.869599,0.154243 -2.063429,0.354995 -3.566356,0.599735 -0.752956,0.122748 -1.946794,0.32797 -3.566373,0.613414 -0.490366,0.08634 -1.225936,0.211611 -1.634584,0.278179 -0.408639,0.06655 -1.177639,0.200313 -1.708881,0.297198 -0.531232,0.09689 -1.300232,0.23063 -1.70888,0.297198 -0.408648,0.06655 -1.160847,0.19407 -1.671728,0.28338 -0.510735,0.08931 -1.313319,0.225127 -1.783187,0.301806 -2.169531,0.353809 -3.739025,0.617568 -4.420805,0.742836 -0.408648,0.07515 -1.211077,0.212058 -1.783178,0.304334 -0.572109,0.09213 -1.3411,0.226314 -1.708881,0.297946 -0.36778,0.0718 -1.13678,0.207742 -1.70888,0.30209 -0.572109,0.09451 -1.324764,0.241473 -1.672622,0.32663 l -0.632443,0.154828 0.03809,11.756968 c 0.03362,10.360424 0.06449,11.750869 0.260939,11.707035 0.213683,-0.04781 4.49941,-0.779996 6.278281,-1.07274 2.185282,-0.359604 2.621127,-0.433463 3.454914,-0.586365 0.490374,-0.0899 1.276158,-0.226907 1.746025,-0.304627 0.847313,-0.139979 1.95571,-0.3235 3.52922,-0.584292 0.449507,-0.07463 1.619726,-0.27639 2.600475,-0.448467 0.980748,-0.172076 2.150958,-0.371796 2.600474,-0.44372 0.449506,-0.07197 1.185068,-0.204174 1.634574,-0.293922 0.449516,-0.08961 1.218507,-0.224388 1.70889,-0.299278 0.490374,-0.07489 1.694014,-0.276992 2.674771,-0.449069 0.980748,-0.172076 2.184397,-0.378623 2.674771,-0.45887 2.806282,-0.459463 5.527716,-0.923097 6.909829,-1.1769 1.034838,-0.19021 3.389085,-0.584292 5.200945,-0.870785 0.53123,-0.08409 1.09963,-0.184415 1.26309,-0.222901 0.16346,-0.03843 0.79871,-0.149489 1.41168,-0.246674 0.61297,-0.09718 1.64944,-0.27431 2.30328,-0.393636 0.65383,-0.119472 1.55656,-0.276098 2.00608,-0.348022 0.44951,-0.07205 1.2185,-0.204466 1.70888,-0.294369 0.49038,-0.0899 1.27602,-0.226907 1.74603,-0.304626 0.47002,-0.07756 1.23887,-0.204767 1.70888,-0.282337 0.47002,-0.07773 1.25566,-0.215317 1.74603,-0.305959 0.49038,-0.09051 1.29282,-0.228249 1.78318,-0.305968 0.49039,-0.07773 1.25938,-0.206994 1.70889,-0.287087 0.44951,-0.08013 1.21851,-0.209375 1.70888,-0.287094 0.49038,-0.07773 1.29281,-0.216065 1.78318,-0.307301 0.49038,-0.09124 1.29282,-0.228541 1.78318,-0.304928 0.49038,-0.07652 1.14421,-0.189608 1.45285,-0.251429 l 0.56126,-0.112336 -0.006,-11.611633 -0.005,-11.611784 0.53065,-0.647592 c 0.292,-0.356337 1.17779,-1.304094 1.96848,-2.106231 4.90672,-4.978048 10.80489,-7.69636 18.30199,-8.434897 3.13319,-0.308642 7.3522,0.239392 10.92985,1.419714 7.31373,2.412792 13.54164,7.924308 16.91571,14.969659 0.38027,0.793952 0.69143,1.512729 0.69143,1.59743 0,0.259005 0.27224,0.17371 0.90243,-0.282787 0.33154,-0.240131 0.67271,-0.45991 0.75802,-0.488439 0.18663,-0.06217 -0.78298,-2.184845 -1.8514,-4.053021 -1.19592,-2.091373 -2.80836,-4.145894 -4.84579,-6.174113 -3.42579,-3.410789 -6.13668,-5.155481 -11.0862,-7.135558 -0.16345,-0.06535 -0.56467,-0.199411 -0.89159,-0.297938 -0.32691,-0.09852 -0.76156,-0.232109 -0.96588,-0.296896 -1.38256,-0.437771 -4.25422,-0.970792 -6.16684,-1.144502 -1.63532,-0.148603 -5.73011,0.0017 -7.13273,0.260638 -2.76645,0.512068 -4.24396,0.890398 -5.79533,1.4839 -2.02823,0.776136 -4.3639,1.901618 -5.29813,2.553218 -0.21696,0.151277 -0.46215,0.275057 -0.54491,0.275057 -0.0828,0 -0.17268,0.05004 -0.20002,0.11145 -0.0272,0.06139 -0.48413,0.407462 -1.01537,0.769301 -2.34682,1.598462 -4.62409,3.772318 -6.66657,6.363429 -0.63927,0.811053 -1.20053,1.383601 -1.36919,1.396825 -0.15722,0.01238 -0.36377,0.02898 -0.45917,0.03714 -0.37596,0.03224 -0.23167,-0.328994 0.55799,-1.396825 6.56448,-8.87786 17.42494,-13.867653 27.99773,-12.863277 1.2668,0.120375 2.67105,0.289176 3.12057,0.375365 1.25551,0.240578 4.81191,1.214353 4.97062,1.361159 0.0777,0.0718 0.22617,0.13047 0.32988,0.13047 0.10387,0 0.57538,0.17371 1.04762,0.385914 5.3607,2.408484 9.00343,5.138388 12.63028,9.465128 1.25625,1.498611 2.92026,4.171155 3.92716,6.307554 0.35605,0.75532 0.69024,1.37379 0.74285,1.374539 0.0524,6.79e-4 1.37334,-0.817589 2.93511,-1.818844 3.80843,-2.441472 5.23305,-3.348224 6.3037,-4.012162 0.49423,-0.306407 0.84923,-0.557243 0.7889,-0.557243 -0.0935,0 -6.36655,1.04048 -7.7763,1.289829 -0.99398,0.175799 -1.00067,0.04574 -0.0912,-1.767572 0.46273,-0.922349 0.83363,-1.79715 0.82457,-1.944266 -0.0178,-0.285306 -1.29325,-2.091966 -2.03744,-2.885927 l -0.44846,-0.478637 -2.2159,0.313543 -2.21606,0.313543 -0.88281,-0.913433 c -0.57478,-0.594688 -0.85236,-0.993087 -0.79545,-1.141535 0.13002,-0.338805 0.53778,-3.164699 0.53778,-3.726997 0,-0.435543 -0.12988,-0.58652 -1.22535,-1.42268 -1.41019,-1.076602 -1.80502,-1.306484 -2.24651,-1.307971 -0.1746,-5.33e-4 -1.13084,0.409834 -2.12496,0.912255 l -1.80755,0.913278 -0.99784,-0.501518 c -0.54877,-0.275642 -1.05327,-0.636002 -1.12118,-0.80065 -0.0679,-0.164639 -0.23612,-0.968109 -0.37372,-1.785405 -0.1376,-0.817296 -0.29081,-1.710824 -0.34044,-1.98558 -0.1009,-0.560063 -0.11887,-0.569418 -2.58531,-1.351796 l -1.45508,-0.461545 -0.6253,0.515782 c -0.34386,0.283828 -0.96886,0.877037 -1.38865,1.31822 -1.14347,1.201861 -1.51987,1.466067 -1.84322,1.29295 -0.14935,-0.07996 -0.536,-0.145327 -0.8592,-0.145327 -0.34697,0 -0.71,-0.10654 -0.88624,-0.260045 -0.16405,-0.1431 -0.67493,-0.991152 -1.13514,-1.884525 -0.46036,-0.893519 -0.91002,-1.71275 -0.99932,-1.820331 -0.12052,-0.145181 -0.70629,-0.195859 -2.26286,-0.195859 h -2.10029 l -0.94197,1.82034 m 1.75064,15.323023 c -1.43234,0.386207 -2.9846,1.646621 -4.16076,3.378683 -0.72858,1.073024 -2.0667,3.67543 -2.06849,4.023004 -0.002,0.357231 -0.31934,0.379818 -2.15601,0.153204 -2.61192,-0.32246 -5.49577,0.142507 -7.11207,1.146591 -1.82079,1.131131 -2.71653,3.288332 -2.32231,5.593096 0.10477,0.612967 0.24772,1.149849 0.31742,1.192952 0.0697,0.04308 0.12675,0.201354 0.12675,0.351582 0,0.485318 1.33427,2.955916 2.25929,4.183494 l 0.89917,1.193391 -0.46318,0.62099 c -2.248,3.013722 -3.20349,5.270938 -3.18803,7.53097 0.0189,2.768827 1.44749,4.366413 4.80181,5.370049 0.74329,0.222454 4.21767,0.270303 5.76027,0.07953 0.82397,-0.101932 0.94063,-0.08452 1.01894,0.152455 0.34281,1.037377 1.40485,3.128156 2.12837,4.190192 0.31206,0.457976 0.96336,1.209289 1.44765,1.669793 3.98779,3.79239 8.71798,1.515416 11.55011,-5.559958 l 0.22483,-0.561851 1.00869,0.116058 c 1.58124,0.18218 4.78115,0.131063 5.68953,-0.09064 1.96151,-0.478939 3.64795,-1.688529 4.30595,-3.08832 1.21776,-2.590669 0.36599,-5.653281 -2.74952,-9.885664 l -0.40479,-0.550115 0.80898,-1.084469 c 1.65345,-2.216933 2.40819,-3.792532 2.79261,-5.829521 0.21843,-1.157735 0.14146,-1.9294 -0.31399,-3.14672 -1.01359,-2.709241 -4.64415,-4.122421 -9.19438,-3.578987 -0.93989,0.112181 -1.7863,0.176531 -1.88096,0.142791 -0.0948,-0.03371 -0.28457,-0.407599 -0.42202,-0.830804 -0.5461,-1.682283 -1.8976,-3.871142 -3.19323,-5.171667 -1.61437,-1.620767 -3.57989,-2.230613 -5.51063,-1.710076 m 2.90822,2.397633 c 0.81655,0.478646 2.00638,1.752869 2.63629,2.823082 0.61192,1.039591 1.30158,2.524531 1.30158,2.80271 0,0.250681 -0.28027,0.372974 -2.60049,1.135293 -1.06247,0.349053 -2.1199,0.729766 -2.34994,0.846117 -0.36778,0.185894 -0.51132,0.181139 -1.18878,-0.03981 -0.4238,-0.138337 -0.8375,-0.298083 -0.91923,-0.355004 -0.0818,-0.05709 -1.03454,-0.38962 -2.11753,-0.739121 -1.08298,-0.3495 -1.96893,-0.685631 -1.96893,-0.747005 0,-0.06139 0.3076,-0.739723 0.68341,-1.507381 1.95258,-3.987787 4.31351,-5.514634 6.52362,-4.218855 m -74.898526,0.634067 c -0.73839,0.46838 -1.864173,1.185963 -2.501955,1.594611 -0.637791,0.408648 -1.705468,1.088931 -2.372518,1.511543 -0.667205,0.422762 -2.216202,1.410639 -3.442138,2.19539 -3.18536,2.038924 -5.283869,3.368872 -5.991194,3.797288 -0.738983,0.447572 -0.795749,0.666612 -0.138491,0.534208 0.549512,-0.110711 8.823476,-1.5261 10.067545,-1.72226 0.449507,-0.07076 1.352244,-0.226451 2.006079,-0.345932 1.18076,-0.215618 3.213742,-0.550107 3.640662,-0.599151 0.190648,-0.02184 0.228695,-0.588893 0.262572,-3.924185 0.02175,-2.144278 -0.01178,-3.897439 -0.07429,-3.895952 -0.06277,0.0017 -0.71803,0.386207 -1.456265,0.85444 m 114.349929,0.615788 c -1.26606,0.810168 -3.32177,2.130753 -4.56821,2.934813 -1.24659,0.803926 -2.45025,1.570105 -2.67477,1.702501 -0.22468,0.132249 -1.24422,0.783256 -2.26583,1.446454 -1.02162,0.663199 -2.3752,1.517046 -3.00793,1.897311 -1.30529,0.784597 -1.76401,1.204388 -1.15283,1.054745 0.20433,-0.05004 1.04019,-0.19555 1.85748,-0.323345 0.8173,-0.127796 1.7869,-0.29749 2.15468,-0.376998 0.62693,-0.135517 9.86144,-1.711254 10.99629,-1.876349 0.28605,-0.04162 0.67062,-0.106102 0.85444,-0.143246 l 0.33435,-0.0675 v -3.860739 c 0,-2.12347 -0.0508,-3.860734 -0.11294,-3.860734 -0.0622,0 -1.14882,0.662898 -2.41473,1.473058 m 50.30208,0.01771 c -0.2452,0.06956 -1.11449,0.22781 -1.9318,0.351736 -0.81727,0.123935 -2.2884,0.365408 -3.26916,0.536745 -0.98075,0.171173 -2.15095,0.37134 -2.60048,0.444597 -0.44949,0.07326 -1.18507,0.200614 -1.63457,0.282787 -1.25759,0.230183 -4.28097,0.746111 -5.27525,0.900209 -0.49037,0.07609 -1.66058,0.272079 -2.60047,0.435841 -0.93988,0.163598 -2.34414,0.401064 -3.12057,0.527819 -0.77642,0.1266 -1.7126,0.294378 -2.08037,0.372983 -0.36778,0.0785 -1.20366,0.21799 -1.85749,0.309974 -0.65383,0.09198 -1.42283,0.224982 -1.70888,0.295418 -0.28605,0.07042 -1.22222,0.241172 -2.08038,0.379363 -2.65753,0.428114 -3.62669,0.590681 -5.72104,0.95921 -0.40865,0.0718 -1.14421,0.196005 -1.63458,0.275942 -2.25052,0.366749 -3.77455,0.62412 -4.45795,0.752956 -0.87228,0.164493 -2.3391,0.413695 -2.97198,0.50494 -0.24518,0.03534 -1.24822,0.208335 -2.22898,0.384564 -0.98075,0.176092 -2.16759,0.383532 -2.63762,0.46096 -0.47001,0.07738 -1.27229,0.213829 -1.78317,0.303139 -0.51074,0.08931 -1.26309,0.216804 -1.67174,0.283371 -0.40865,0.06655 -1.17764,0.196444 -1.70888,0.288729 -0.53123,0.09213 -1.35032,0.232109 -1.82033,0.310869 -0.93885,0.15752 -2.30477,0.392896 -3.45492,0.595281 -0.40864,0.0718 -1.16085,0.200167 -1.67173,0.28516 -1.02221,0.170151 -2.38367,0.404341 -3.52921,0.607328 -1.61453,0.285899 -2.56793,0.443711 -3.49875,0.578944 -0.53496,0.07773 -1.14852,0.208181 -1.36354,0.289907 l -0.39082,0.148603 -0.002,11.609406 -0.002,11.609539 -0.60702,0.786833 c -0.9078,1.176599 -3.31079,3.44006 -4.9418,4.654852 -0.79381,0.59112 -1.47588,1.074813 -1.51571,1.074813 -0.0399,0 -0.36019,0.192136 -0.71163,0.427066 -1.94649,1.300834 -5.20421,2.663481 -7.9946,3.344066 -4.64622,1.133066 -9.96099,1.058166 -14.48835,-0.204329 -0.32692,-0.09123 -0.795,-0.220364 -1.04019,-0.287086 -1.23634,-0.336578 -4.59332,-1.871456 -6.02804,-2.756205 -3.76207,-2.320069 -6.93465,-5.367534 -9.25145,-8.886488 -0.77657,-1.179427 -2.3379,-4.139067 -2.54549,-4.825137 -0.13299,-0.439704 -0.28872,-0.422766 -1.1396,0.123179 l -0.71297,0.457537 0.24311,0.619812 c 0.37045,0.944636 1.57276,3.20333 2.35721,4.427933 2.263,3.533674 5.30169,6.626753 8.859,9.017998 1.29176,0.868412 4.05703,2.321401 5.39486,2.834956 0.49037,0.188275 1.02533,0.395871 1.18879,0.461407 0.57686,0.231215 1.40603,0.483237 2.97197,0.903175 0.45634,0.12245 1.3937,0.30418 2.97197,0.57613 2.10876,0.36332 6.62199,0.33003 9.1388,-0.0675 1.80859,-0.28561 4.95308,-1.089978 5.53322,-1.415257 0.14191,-0.07962 0.32662,-0.144734 0.41028,-0.144734 0.29452,0 3.60885,-1.568463 4.88145,-2.310112 0.66558,-0.387849 2.16805,-1.444674 3.64215,-2.561842 1.21658,-0.922048 3.89105,-3.654328 4.91534,-5.021438 0.48503,-0.647447 0.98269,-1.260715 1.10573,-1.362948 0.26241,-0.217845 1.05861,-0.250535 1.05861,-0.04351 0,0.247414 -2.15201,3.002725 -3.34465,4.282308 -1.50173,1.611403 -3.61362,3.376456 -5.66785,4.736876 -1.56311,1.035287 -3.89253,2.322149 -4.88145,2.696912 -0.24519,0.09288 -0.81358,0.308345 -1.26309,0.478785 -2.14755,0.81461 -4.12673,1.32565 -6.98413,1.8034 -1.70412,0.28485 -6.86094,0.24013 -8.76731,-0.0761 -4.44621,-0.73735 -8.52525,-2.21858 -11.76082,-4.270874 C 128.36828,94.221613 124.46623,89.95252 121.77125,84.515 l -0.9072,-1.830434 -2.92917,1.868473 c -1.61111,1.027712 -3.53293,2.247559 -4.27072,2.710884 -0.7378,0.463479 -1.7074,1.09354 -2.15468,1.400393 l -0.81313,0.557836 1.18878,-0.08663 c 0.65384,-0.04755 1.82049,-0.123935 2.59245,-0.169402 0.77212,-0.04557 1.44126,-0.106103 1.48718,-0.134331 0.0459,-0.02837 0.71357,-0.07162 1.48361,-0.096 0.99561,-0.03147 1.41763,0.0077 1.46013,0.135078 0.033,0.09882 -0.21621,0.725304 -0.55354,1.392363 -0.33745,0.667059 -0.58473,1.285676 -0.54966,1.374542 0.0352,0.08886 0.57374,0.847012 1.19696,1.684815 1.12831,1.51689 1.13559,1.523133 1.76312,1.519564 0.34653,-0.0017 0.89753,-0.06552 1.22445,-0.141466 0.32692,-0.07575 1.09591,-0.178465 1.70889,-0.227948 l 1.11448,-0.09005 0.78014,0.766025 c 0.86277,0.847157 0.91433,1.06262 0.63645,2.660059 -0.36421,2.093901 -0.41444,2.613849 -0.26955,2.792759 0.32691,0.40375 3.06721,2.26821 3.32845,2.2648 0.1538,-0.002 1.07838,-0.4033 2.05468,-0.8916 0.97629,-0.48829 1.9022,-0.88787 2.05748,-0.88787 0.1553,0 0.45992,0.11947 0.67687,0.26539 0.21696,0.14593 0.58697,0.36258 0.82235,0.48132 0.54922,0.27683 0.61,0.44297 0.97748,2.66719 0.16836,1.01938 0.38918,1.93237 0.49052,2.02881 0.10149,0.0964 0.81967,0.38264 1.59611,0.63615 0.77642,0.25337 1.60723,0.5259 1.84633,0.6057 0.41741,0.13908 0.50092,0.0792 2.11321,-1.51155 l 1.67872,-1.65628 0.5788,0.17342 c 0.31829,0.0954 0.80926,0.17341 1.091,0.17341 0.56348,0 0.43584,-0.17253 1.87026,2.52617 0.36927,0.6947 0.73854,1.34839 0.82041,1.45285 0.111,0.14132 0.67732,0.17921 2.22437,0.1486 l 2.07563,-0.0412 0.55546,-1.04019 c 1.70858,-3.19977 1.52788,-2.96245 2.32928,-3.05875 0.3975,-0.0477 0.88981,-0.13313 1.09413,-0.18975 0.38829,-0.10774 0.33138,-0.1535 3.05043,2.45618 0.69143,0.6635 0.78029,0.70599 1.18879,0.56958 0.24296,-0.0812 1.0769,-0.35486 1.85332,-0.60821 0.77642,-0.25351 1.48941,-0.53808 1.58435,-0.63229 0.1495,-0.14816 0.3602,-1.15446 0.79114,-3.77633 0.0572,-0.34802 0.13122,-0.65503 0.1645,-0.68192 0.25053,-0.20299 1.86462,-0.98833 2.03119,-0.98833 0.11502,0 1.0283,0.40122 2.02956,0.89159 1.00126,0.49037 1.93803,0.89159 2.08201,0.89159 0.28769,0 0.66706,-0.24296 2.27638,-1.4573 0.87035,-0.65667 1.07734,-0.88997 1.07734,-1.21391 0,-0.40181 -0.34341,-2.790682 -0.52678,-3.663548 -0.0886,-0.422319 -0.0181,-0.543279 0.7684,-1.31718 l 0.86589,-0.852359 0.96946,0.09822 c 0.53316,0.05408 1.52788,0.195111 2.21054,0.313552 0.68281,0.118432 1.29876,0.179952 1.36889,0.136557 0.27194,-0.168061 2.36792,-3.166031 2.36792,-3.387001 0,-0.128543 -0.40121,-1.05342 -0.89159,-2.055269 -0.49038,-1.002003 -0.89159,-1.940104 -0.89159,-2.084683 0,-0.273725 0.0404,-0.287843 1.56028,-0.548034 0.49037,-0.08401 1.12564,-0.192884 1.41169,-0.242221 7.18399,-1.237818 11.01099,-1.891507 11.73928,-2.005485 0.44951,-0.07025 1.18507,-0.201052 1.63458,-0.290801 0.44951,-0.08961 1.2185,-0.223648 1.70888,-0.297945 1.66847,-0.252324 4.76125,-0.777315 6.16684,-1.046878 0.36778,-0.07059 1.13678,-0.201345 1.70888,-0.290654 0.57211,-0.08946 1.37454,-0.225429 1.78318,-0.302254 0.40865,-0.07695 0.97704,-0.174303 1.26309,-0.216357 0.28606,-0.04205 0.90466,-0.144287 1.37454,-0.226907 0.46986,-0.0828 1.23901,-0.214131 1.70888,-0.291695 0.46987,-0.07773 1.25565,-0.215326 1.74603,-0.305968 0.49038,-0.0905 1.29281,-0.22364 1.78318,-0.295857 0.49038,-0.07223 1.29281,-0.205368 1.78318,-0.295865 0.49038,-0.09064 1.25938,-0.224972 1.70888,-0.29853 0.44952,-0.0736 1.21851,-0.207295 1.70888,-0.297198 0.49039,-0.0899 1.27617,-0.226907 1.74604,-0.304635 0.87777,-0.145027 2.14621,-0.362717 3.45492,-0.593046 0.40864,-0.07179 1.1442,-0.196891 1.63457,-0.277731 0.49038,-0.081 1.29281,-0.221267 1.78319,-0.311906 0.49037,-0.09051 1.2928,-0.22781 1.78319,-0.304928 0.49036,-0.07713 1.25936,-0.204319 1.70887,-0.282632 0.4495,-0.07816 1.21851,-0.207596 1.70889,-0.287533 2.84534,-0.463634 3.78375,-0.623527 4.38365,-0.746714 0.36777,-0.07549 1.18684,-0.222599 1.82032,-0.326913 l 1.15166,-0.18947 V 64.724971 52.940965 l -0.33436,0.01333 c -0.18383,0.0077 -0.53495,0.07025 -0.78013,0.139979 m -2.57508,4.253334 c 0.25292,0.228833 0.27178,0.588747 0.27178,5.184448 0,5.752989 0.0795,5.446875 -1.48598,5.719258 -0.53122,0.09242 -1.26679,0.24934 -1.63457,0.348753 l -0.6687,0.180855 -0.0743,2.6611 -0.0743,2.661247 -0.37151,0.103127 c -0.20432,0.05658 -0.5889,0.109662 -0.85445,0.117838 l -0.48293,0.01487 v -8.172917 c 0,-4.495102 0.0271,-8.172909 0.06,-8.172909 0.22541,0 4.63344,-0.78163 4.68278,-0.830373 0.12631,-0.124967 0.36809,-0.05425 0.63214,0.184707 m -115.38893,0.281738 0.49691,0.379079 v 7.716703 7.716721 l -0.39676,0.09956 c -0.21815,0.05469 -0.636,0.106249 -0.92874,0.114279 l -0.53198,0.0147 -0.0387,-7.183699 -0.0385,-7.183545 -0.77881,0.105053 c -0.42826,0.05787 -0.82873,0.134786 -0.8901,0.171036 -0.0614,0.03646 -0.11145,3.263673 -0.11145,7.171963 0,5.855368 -0.0359,7.13555 -0.20477,7.275675 -0.11263,0.09346 -0.5626,0.185154 -0.99976,0.203881 l -0.79501,0.03396 0.0153,-0.557242 c 0.009,-0.306416 0.0237,-3.953767 0.0339,-8.105164 l 0.0186,-7.547748 0.85444,-0.176694 c 0.95088,-0.19659 3.26531,-0.592315 3.58955,-0.613853 0.11486,-0.0077 0.43242,0.156771 0.70583,0.365252 m -7.26602,8.941169 0.0383,7.908565 -0.33554,0.212041 c -0.29883,0.188723 -1.89641,0.519797 -4.05064,0.839437 -1.35166,0.200605 -1.26309,0.763204 -1.26309,-8.024168 v -7.678074 l 0.33435,-0.308943 c 0.23597,-0.217991 0.77181,-0.382638 1.82033,-0.559022 0.81729,-0.137452 1.51674,-0.280406 1.55419,-0.31755 0.0374,-0.03732 0.4721,-0.04815 0.96588,-0.02425 l 0.89769,0.04333 0.0384,7.908556 m 115.17023,-7.795765 c 0.10328,0.124528 0.15944,2.743282 0.16748,7.80751 l 0.0121,7.620429 -0.3351,0.334342 c -0.26672,0.266296 -0.74327,0.403747 -2.34101,0.675391 -1.10334,0.187527 -2.24012,0.318435 -2.52618,0.291102 l -0.52009,-0.04996 -0.0385,-7.767528 c -0.0336,-6.767924 -0.009,-7.812127 0.18902,-8.114673 0.19184,-0.292744 0.44252,-0.37729 1.59877,-0.539711 0.75414,-0.105947 1.50501,-0.245032 1.66847,-0.308934 0.48726,-0.190649 1.95346,-0.154691 2.12496,0.05202 m -89.83327,0.53555 c 0.0957,0.0957 0.0365,0.598694 -0.17149,1.457752 -0.55145,2.277714 -0.61059,2.56897 -0.61059,3.004066 0,1.076146 -0.16167,1.358039 -1.2885,2.246502 -0.60346,0.475818 -1.59996,1.322236 -2.21426,1.880966 -0.61446,0.558584 -1.18003,1.015666 -1.25685,1.015666 -0.39379,0 -2.17281,-2.926794 -2.81712,-4.634334 -0.26763,-0.709414 -0.23747,-2.460495 0.053,-3.072723 0.44103,-0.929477 1.76223,-1.768621 3.20467,-2.035656 0.87584,-0.162111 4.91029,-0.05305 5.10109,0.137761 m 22.84508,0.01866 c 1.50679,0.506272 2.28232,1.14138 2.67507,2.191078 0.38041,1.016714 0.30611,1.776497 -0.33791,3.457287 -0.40018,1.044057 -1.33828,2.624403 -2.02511,3.41109 l -0.53494,0.612666 -0.66871,-0.610887 c -0.36778,-0.335829 -1.3784,-1.207518 -2.24561,-1.936828 -1.76371,-1.483022 -1.60635,-1.167253 -2.06953,-4.150803 -0.0952,-0.612968 -0.23107,-1.28167 -0.3018,-1.485989 -0.0708,-0.20432 -0.14757,-0.638969 -0.1706,-0.965891 -0.0415,-0.587113 -0.0346,-0.595582 0.5525,-0.694548 0.89025,-0.149936 4.53121,-0.02717 5.12664,0.172825 m 71.55017,0.134175 -0.59441,0.09036 -0.0399,3.481801 c -0.022,1.914989 0.0162,3.538137 0.0851,3.606931 0.0688,0.06879 0.47135,0.04531 0.8944,-0.05245 l 0.7693,-0.177425 v -3.540956 c 0,-3.95792 0.11844,-3.595634 -1.11448,-3.408261 m -12.11078,8.431483 v 8.086652 l -0.34163,0.129876 c -0.18798,0.07137 -0.60583,0.153358 -0.92874,0.182033 l -0.58711,0.05219 -0.0743,-2.674763 -0.0743,-2.67478 -0.51028,0.05125 c -1.22698,0.123032 -1.19681,0.06251 -1.2136,2.434038 -0.009,1.166651 -0.004,2.326904 0.009,2.578334 0.0133,0.25142 -0.0635,0.526486 -0.17059,0.611033 -0.31711,0.250243 -1.55805,0.361246 -1.71215,0.153065 -0.18412,-0.249056 -0.1483,-15.961115 0.037,-16.145822 0.0785,-0.07833 0.51058,-0.162722 0.9601,-0.187381 l 0.81728,-0.04497 0.0318,4.365974 c 0.0175,2.401202 0.0575,4.391528 0.0887,4.422886 0.0314,0.03121 0.41831,0.0043 0.85979,-0.05873 l 0.80288,-0.115457 0.0394,-4.45083 c 0.0217,-2.447856 0.0933,-4.504612 0.15929,-4.570586 0.15499,-0.154992 1.37989,-0.377144 1.62166,-0.294077 0.14547,0.05004 0.18575,1.814244 0.18575,8.15033 m -115.3419,-7.939928 c 0.13048,0.130478 0.17832,1.332631 0.17832,4.481147 v 4.302666 l -0.37148,0.487106 c -0.20433,0.267921 -0.37151,0.556796 -0.37151,0.64209 0,0.0853 0.16718,0.264654 0.37151,0.398545 l 0.37148,0.243408 v 2.735698 c 0,2.723351 -0.002,2.736137 -0.34415,2.866452 -0.49454,0.187983 -1.18596,0.241034 -1.40202,0.107598 -0.13672,-0.08452 -0.18561,-0.783264 -0.18561,-2.652786 v -2.538214 l -0.76899,0.09109 c -0.42291,0.05004 -0.82308,0.176538 -0.88921,0.280852 -0.0663,0.104322 -0.12141,1.305736 -0.12275,2.669871 -0.002,1.73489 -0.0547,2.512651 -0.17653,2.587989 -0.26406,0.163169 -1.33947,0.335692 -1.56162,0.250389 -0.15871,-0.06096 -0.19586,-1.60516 -0.19586,-8.157905 0,-4.445473 0.0168,-8.086728 0.0371,-8.091776 0.7112,-0.172523 4.47743,-0.850287 4.79973,-0.863657 0.24935,-0.0104 0.53348,0.06139 0.63155,0.159437 m 37.09805,0.28547 c 0.82116,0.255135 1.51125,0.479523 1.53369,0.498834 0.10922,0.09422 -0.16539,0.503607 -0.38532,0.57419 -0.34519,0.110857 -2.03326,1.066937 -2.81416,1.594017 -0.35499,0.239538 -0.7097,0.435543 -0.78831,0.435543 -0.20402,0 -0.0444,-1.020283 0.47076,-3.009122 0.0794,-0.306406 0.22216,-0.557242 0.31741,-0.557242 0.0951,0 0.84493,0.208636 1.66593,0.46378 m 10.91694,-0.189024 c 0.22497,0.420385 0.74596,3.054297 0.62827,3.17659 -0.0571,0.05933 -0.73734,-0.276983 -1.51169,-0.747006 -0.7742,-0.470159 -1.65851,-0.973164 -1.96507,-1.117907 -0.30641,-0.144579 -0.55723,-0.347712 -0.55723,-0.45114 0,-0.172232 2.39673,-1.060403 3.00391,-1.113153 0.14012,-0.01221 0.32098,0.101494 0.40181,0.252616 m -43.52732,0.746266 -0.37149,0.106842 -0.0388,6.282442 -0.0388,6.282596 0.85607,-0.102233 c 0.47091,-0.05623 0.90705,-0.148749 0.96916,-0.205669 0.0623,-0.05709 0.0957,-2.874637 0.0743,-6.261342 l -0.0388,-6.157768 -0.5201,-0.02571 c -0.28605,-0.01419 -0.68726,0.0221 -0.89158,0.08082 m 115.05236,0.05185 -0.33435,0.161372 v 6.135335 c 0,3.374374 0.0543,6.168919 0.12096,6.210079 0.0665,0.04101 0.45085,0.02751 0.85444,-0.03018 l 0.73348,-0.104907 0.0388,-6.2765 0.0388,-6.27651 -0.55887,0.01015 c -0.30746,0.0052 -0.70942,0.08263 -0.89323,0.171191 m -126.9398,0.998751 c 0,1.013448 -0.0682,1.08655 -1.114487,1.194879 l -0.743,0.07695 -0.0743,7.271969 -0.0743,7.271814 -0.49869,0.129283 c -0.274321,0.07102 -0.675532,0.108768 -0.891597,0.08366 l -0.392896,-0.04548 -0.07429,-7.132729 -0.07429,-7.132721 -0.52009,0.06182 c -1.293999,0.153805 -1.258488,0.174458 -1.307524,-0.763059 -0.05219,-0.996646 -0.375356,-0.838534 2.958745,-1.446454 3.103919,-0.566013 2.806729,-0.61148 2.806729,0.43004 m 115.01001,-0.44683 c 0.23449,0.438217 0.20552,6.618581 -0.0319,6.81057 -0.10207,0.08246 -0.53673,0.19733 -0.96589,0.25499 l -0.78014,0.104915 v -2.605676 c 0,-1.433084 -0.0502,-2.633611 -0.11145,-2.667643 -0.0612,-0.03405 -0.44578,-0.02124 -0.85443,0.02837 l -0.743,0.09034 -0.0743,3.548386 c -0.0582,2.783849 -0.0337,3.563837 0.11413,3.620456 0.10372,0.03964 0.4715,0.0026 0.81728,-0.08203 0.34594,-0.08486 1.0023,-0.199126 1.45865,-0.253957 1.33204,-0.160039 1.3249,-0.178912 1.3249,3.488946 0,2.727969 -0.0308,3.130375 -0.26004,3.406171 -0.21027,0.252917 -0.68519,0.384126 -2.47832,0.685185 -2.62069,0.440005 -2.52707,0.435397 -2.82353,0.138938 -0.30121,-0.30135 -0.34118,-3.062603 -0.0477,-3.294875 0.10223,-0.081 0.52916,-0.190649 0.94895,-0.243992 0.86603,-0.110109 0.94567,-0.02915 0.94567,0.961136 0,0.564224 0.0157,0.582211 0.51044,0.582211 0.2807,0 0.68192,-0.06526 0.89159,-0.144888 0.37878,-0.143995 0.38115,-0.155878 0.38115,-1.857484 0,-1.27185 -0.0478,-1.712148 -0.18574,-1.711108 -0.10209,6.79e-4 -0.81863,0.129274 -1.59223,0.285315 -1.51824,0.306252 -1.87175,0.248755 -2.01589,-0.328263 -0.0455,-0.181431 -0.0629,-2.485301 -0.0389,-5.119661 l 0.0435,-4.789471 0.37092,-0.262874 c 0.2168,-0.153504 1.1436,-0.393936 2.22897,-0.578196 2.44964,-0.415931 2.77611,-0.423213 2.96736,-0.06586 m -110.03202,0.604212 c -0.16346,0.07025 -0.48116,0.132395 -0.70584,0.13819 l -0.40865,0.0104 v 3.496668 c 0,2.661246 0.0444,3.513459 0.18575,3.566511 0.10224,0.03818 0.48666,0.01771 0.85444,-0.04591 l 0.66869,-0.115457 0.0398,-3.599502 c 0.0421,-3.805009 0.0529,-3.746162 -0.63422,-3.450899 m 46.1844,1.02919 c 3.14762,1.662821 5.25786,3.056963 5.41464,3.577362 0.14548,0.483384 0.14726,7.688046 0.002,8.172918 -0.0647,0.216056 -0.40686,0.553382 -0.81729,0.805989 -3.18015,1.957197 -4.0062,2.435981 -5.29263,3.067968 l -1.46622,0.720107 -1.95897,-1.010615 c -1.07748,-0.555755 -2.76482,-1.520906 -3.74944,-2.144716 l -1.79046,-1.134262 -0.0969,-1.363833 c -0.12393,-1.747367 -0.12363,-4.31233 0.002,-6.067126 l 0.0976,-1.37692 1.4255,-0.929778 c 1.63073,-1.063816 3.84232,-2.315606 5.1323,-2.905092 1.04895,-0.479386 1.09443,-0.470762 3.09886,0.587998 m 56.38793,3.739929 0.0393,4.397624 -0.44788,0.563777 c -0.24637,0.309975 -0.44802,0.619357 -0.44802,0.68742 0,0.06793 0.20061,0.271936 0.44579,0.453221 l 0.4458,0.329596 v 2.641634 c 0,3.010013 0.0232,2.956962 -1.31777,3.000942 l -0.68831,0.02261 -0.0743,-2.60047 -0.0743,-2.600474 -0.74299,0.05314 c -0.40865,0.02932 -0.79367,0.129575 -0.85564,0.2229 -0.0618,0.09332 -0.10594,1.297112 -0.0981,2.675219 0.008,1.377943 -0.0426,2.562423 -0.11234,2.632112 -0.0697,0.06973 -0.51029,0.171784 -0.97912,0.226915 l -0.8525,0.100153 -0.0124,-7.710321 c -0.007,-4.240853 -0.0291,-7.861902 -0.0496,-8.047056 -0.0205,-0.185155 0.0353,-0.394822 0.12378,-0.465852 0.25277,-0.202695 1.63355,-0.455612 1.76744,-0.323655 0.0661,0.06526 0.11442,1.989888 0.10728,4.27712 -0.007,2.287224 0.0249,4.25719 0.071,4.377849 0.0816,0.212651 0.47759,0.223794 1.37305,0.03878 l 0.33434,-0.06913 v -4.436999 c 0,-3.368433 0.0447,-4.473856 0.18575,-4.590499 0.20789,-0.171931 0.88595,-0.299288 1.44884,-0.272238 l 0.37149,0.01797 0.0394,4.397624 M 93.355495,62.629549 c 0.13047,0.130469 0.178319,1.326096 0.178319,4.452008 v 4.273697 l -0.559925,0.167761 c -0.308041,0.09228 -0.759336,0.145034 -1.003035,0.1174 l -0.443119,-0.05039 -0.03981,-3.548231 -0.0399,-3.54824 -0.480117,0.08022 c -0.264215,0.04411 -0.667059,0.152464 -0.895161,0.240725 l -0.415037,0.160339 0.03164,6.175016 c 0.01737,3.396214 0.07059,6.198927 0.117984,6.22835 0.04746,0.02932 0.437177,-0.01608 0.866177,-0.1009 l 0.779997,-0.154243 0.0017,-1.652116 c 0.0017,-0.908531 0.06285,-1.747667 0.136858,-1.864465 0.08366,-0.13225 0.475964,-0.237311 1.03797,-0.278024 l 0.903329,-0.06526 v 2.441622 c 0,3.023529 0.05159,2.939571 -2.028227,3.304081 -0.805104,0.14102 -1.744245,0.318298 -2.086911,0.39379 -0.950585,0.209522 -1.355218,0.169695 -1.526409,-0.15009 -0.100307,-0.187382 -0.153796,-2.923962 -0.153796,-7.859216 0,-7.094235 0.01711,-7.592933 0.269855,-7.905143 0.220227,-0.272082 0.622478,-0.395415 2.191826,-0.672106 2.231051,-0.393498 2.908368,-0.433609 3.155335,-0.186642 m -7.529623,1.41912 c 0.01049,0.224681 0.03044,0.597362 0.04411,0.82813 0.03646,0.60866 -0.224234,0.699303 -3.14672,1.094133 l -0.63154,0.0853 v 3.617627 3.617627 l 0.482945,-0.10268 c 0.265548,-0.05649 0.683551,-0.104898 0.928738,-0.107727 l 0.445792,-0.0052 v 0.887286 0.887285 l -0.891593,0.152903 -0.891585,0.152911 -0.04205,1.765947 -0.04205,1.765947 0.636441,-0.08604 c 0.350102,-0.04721 1.037668,-0.154992 1.528042,-0.239547 1.611996,-0.277878 1.476772,-0.325581 1.565041,0.552338 0.04342,0.432715 0.03852,0.852213 -0.01101,0.932306 -0.04944,0.08013 -0.452783,0.208034 -0.896349,0.284275 -3.546752,0.610439 -4.476083,0.745371 -4.600903,0.668237 -0.121854,-0.07532 -0.227208,-16.245215 -0.106094,-16.278361 0.325271,-0.08915 4.905522,-0.84849 5.20094,-0.862316 0.347128,-0.01634 0.411468,0.04239 0.427813,0.389482 m 114.930507,-0.19794 c 0.27194,0.198834 0.29096,0.452491 0.33212,4.445482 l 0.0435,4.234602 -0.4522,0.515189 c -0.24875,0.283234 -0.45233,0.57879 -0.45233,0.656664 0,0.0779 0.19229,0.312941 0.42751,0.522316 l 0.42738,0.380859 0.02,2.504329 c 0.011,1.377221 -0.0361,2.589929 -0.10491,2.694836 -0.12645,0.19303 -1.64185,0.504337 -1.84737,0.379517 -0.0614,-0.03714 -0.11146,-1.242436 -0.11146,-2.678482 v -2.610878 l -0.77166,0.102387 c -0.42425,0.05632 -0.82547,0.135818 -0.8916,0.176539 -0.0659,0.04067 -0.11991,1.276012 -0.11991,2.744761 0,2.006823 -0.0462,2.685017 -0.18574,2.728412 -0.10209,0.03164 -0.53675,0.09867 -0.9659,0.149042 l -0.78014,0.09139 v -8.182716 c 0,-6.419309 0.0399,-8.19388 0.18574,-8.234739 0.18561,-0.05202 4.50358,-0.78445 4.80107,-0.814321 0.0865,-0.0088 0.2871,0.07893 0.4458,0.19481 m -7.63618,1.372604 c 0.25663,0.232264 0.27179,0.674488 0.27179,7.926991 0,7.130198 -0.0187,7.697243 -0.26004,7.907065 -0.32291,0.280561 -0.67583,0.370455 -3.03558,0.773308 -1.44556,0.246674 -1.93816,0.281893 -2.11752,0.150684 -0.2073,-0.15157 -0.2336,-1.05238 -0.2336,-8.003658 0,-6.494354 0.0353,-7.868144 0.20685,-8.039627 0.11382,-0.113824 1.1335,-0.368529 2.26612,-0.566159 2.56199,-0.446988 2.57165,-0.447581 2.90198,-0.148604 m -118.642647,7.601557 0.03852,7.178795 0.704496,-0.09525 c 0.387401,-0.05254 0.904963,-0.152619 1.15015,-0.222901 0.245187,-0.07016 0.746713,-0.148302 1.114494,-0.17371 l 0.668693,-0.04609 0.04557,0.801398 c 0.02511,0.440736 -0.01135,0.858301 -0.081,0.927998 -0.06973,0.06973 -1.126815,0.298677 -2.349044,0.5088 -1.222075,0.210115 -2.439989,0.419791 -2.706422,0.466007 l -0.484132,0.08409 0.03835,-8.228184 0.03852,-8.22835 0.445801,-0.09852 c 0.245179,-0.05425 0.646398,-0.08842 0.891585,-0.07575 l 0.445792,0.02287 0.03869,7.17879 m 123.409534,-6.847122 -0.63154,0.05692 v 3.649424 3.64944 l 0.33434,-0.09927 c 0.18383,-0.05468 0.58518,-0.1382 0.8916,-0.185602 l 0.55724,-0.08604 V 69.41554 c 0,-3.288634 -0.0189,-3.544818 -0.26004,-3.520743 -0.14296,0.01427 -0.54432,0.05159 -0.8916,0.0828 M 70.472092,66.293856 c 0.131063,0.08323 0.179359,0.384426 0.148595,0.926519 l -0.04574,0.803169 -1.040188,0.193477 c -0.5721,0.106395 -1.392371,0.267775 -1.823005,0.358719 l -0.782671,0.16524 0.03964,3.504845 0.03981,3.504844 0.854432,-0.05082 0.854448,-0.0509 v 0.88505 0.88505 l -0.891593,0.18917 -0.891593,0.189169 v 1.7802 1.780212 l 0.408648,-0.100608 c 0.6308,-0.155284 2.289605,-0.414581 2.786221,-0.435389 0.434056,-0.01831 0.446979,0.0017 0.489928,0.737496 0.02932,0.503452 -0.02373,0.812387 -0.158707,0.92443 -0.111596,0.09258 -1.034091,0.307301 -2.050213,0.47715 -1.016113,0.16985 -2.181723,0.366439 -2.590362,0.43673 -0.408648,0.07042 -0.793668,0.07979 -0.855782,0.02115 -0.06191,-0.05881 -0.0954,-3.746464 -0.07429,-8.194762 l 0.03852,-8.087907 1.931782,-0.33331 c 1.062474,-0.183521 2.199254,-0.393644 2.526168,-0.467194 0.804656,-0.180992 0.862617,-0.183228 1.085965,-0.04162 m 115.198125,7.745989 -0.0157,7.799485 -0.44446,0.458577 c -0.39453,0.407015 -0.6201,0.486961 -2.00757,0.711495 -1.03914,0.168207 -1.64795,0.205507 -1.81632,0.111296 -0.18158,-0.10164 -0.38561,-0.05993 -0.72025,0.146815 -0.25678,0.158706 -0.92562,0.355003 -1.48628,0.435981 -0.56066,0.081 -1.22461,0.186204 -1.47559,0.233752 -0.35604,0.0675 -0.55977,-6.71e-4 -0.92874,-0.311162 l -0.47254,-0.39765 v -7.703932 c 0,-7.209856 0.0167,-7.708553 0.26005,-7.777356 0.82561,-0.23315 1.56667,-0.265685 1.69105,-0.07412 0.0722,0.111149 0.12735,3.21106 0.12259,6.888875 -0.004,3.677806 -0.004,6.837454 -6.7e-4,7.021267 0.009,0.378632 0.23077,0.415191 1.08357,0.178319 l 0.55576,-0.15439 0.0387,-7.234065 0.0384,-7.234222 0.79887,-0.177279 c 0.43926,-0.09762 0.8907,-0.14206 1.00304,-0.09897 0.16926,0.06492 0.20418,1.294145 0.20418,7.186373 0,3.909477 0.0585,7.144162 0.12987,7.188297 0.0714,0.04411 0.47255,-0.0017 0.89159,-0.100754 l 0.76172,-0.180838 v -7.230058 -7.230208 l 0.70585,-0.148594 c 0.38813,-0.08177 0.79425,-0.139085 0.90243,-0.127503 0.16049,0.01728 0.19362,1.452851 0.18069,7.820587 m -36.63546,-7.440967 c -0.87391,0.242367 -1.2032,0.433462 -1.83415,1.064418 -0.77672,0.776721 -0.97852,1.152231 -1.20187,2.236253 -0.37936,1.840691 0.72606,3.921514 2.48427,4.676688 0.33109,0.142215 0.9974,0.241034 1.66624,0.24713 0.91997,0.0086 1.24645,-0.05735 1.87086,-0.376404 1.45433,-0.74299 2.2899,-2.113067 2.2899,-3.754339 0,-1.705468 -0.6256,-2.77924 -2.16107,-3.709319 -0.66349,-0.401959 -2.31546,-0.605831 -3.11418,-0.384427 m 40.90173,0.767512 c -0.24117,0.140426 -0.26004,0.605539 -0.26004,6.39434 v 6.242921 l 0.70583,-0.09451 c 0.38815,-0.05202 0.78951,-0.120951 0.8916,-0.153057 0.14473,-0.04557 0.18574,-1.437973 0.18574,-6.304433 v -6.245745 l -0.63154,0.0043 c -0.34727,0.0026 -0.74864,0.07265 -0.89159,0.156032 m -49.67855,3.280164 c -0.005,1.254164 -0.0449,2.313827 -0.0878,2.354694 -0.0892,0.08452 -2.23194,-1.732964 -2.46985,-2.09495 -0.12349,-0.187673 -0.0407,-0.358709 0.39527,-0.817287 0.75934,-0.798569 1.9826,-1.839643 2.08632,-1.775603 0.0471,0.02915 0.0812,1.078974 0.0761,2.333146 m 21.17692,-1.238721 c 0.65814,0.59811 1.19666,1.173194 1.19666,1.278093 0,0.104915 -0.47789,0.618617 -1.06203,1.141535 -0.58414,0.523073 -1.14466,1.03128 -1.24541,1.129498 -0.10089,0.09837 -0.22467,0.137305 -0.27535,0.08678 -0.1541,-0.154089 -0.1064,-4.827519 0.0487,-4.772834 0.0773,0.02717 0.67911,0.538825 1.33739,1.136926 m -24.7244,3.459825 c 0.23999,0.253355 1.18552,1.090556 2.10118,1.860304 0.91551,0.769584 1.70219,1.460271 1.74826,1.534869 0.0461,0.07446 0.15172,0.62486 0.23479,1.223116 0.0829,0.598256 0.21561,1.405291 0.29482,1.793578 0.079,0.388288 0.20179,0.990112 0.27253,1.337386 0.0708,0.347274 0.17846,0.749387 0.23953,0.893528 0.0636,0.150529 0.0328,0.355889 -0.0727,0.482936 -0.14845,0.178912 -0.63868,0.220674 -2.57982,0.219333 -2.34666,-0.0017 -3.21314,-0.127495 -4.13461,-0.601077 -0.49319,-0.25351 -1.29919,-1.040489 -1.54378,-1.507381 -0.32023,-0.611334 -0.26644,-2.24428 0.10892,-3.301261 0.30671,-0.864104 0.40791,-1.070058 1.17423,-2.390058 0.60286,-1.038408 1.38583,-1.997016 1.63651,-2.003851 0.0461,-0.0017 0.28011,0.205059 0.52009,0.458578 m 27.80397,-0.200761 c 0.52322,0.657696 1.65003,2.404925 1.94055,3.009123 1.38687,2.883553 1.03647,4.8917 -1.03083,5.906635 -1.23664,0.607027 -2.41799,0.754134 -5.31878,0.662451 -1.55925,-0.04935 -1.58481,-0.07532 -1.29801,-1.31718 0.32973,-1.427727 0.50583,-2.32838 0.71,-3.632783 l 0.17683,-1.130091 1.12207,-0.875987 c 0.61698,-0.481905 1.59565,-1.325056 2.17444,-1.873675 0.57894,-0.548627 1.11197,-0.999922 1.18478,-1.003034 0.0727,-0.0026 0.22527,0.111587 0.33895,0.254541 m -19.74502,6.250944 c 0.79307,0.475361 1.65925,0.959794 1.92495,1.076446 0.81298,0.357231 0.61177,0.54996 -1.15164,1.102895 -0.6947,0.217991 -1.34571,0.422165 -1.44661,0.453969 -0.26777,0.08426 -0.43956,-0.324093 -0.78059,-1.855102 -0.27178,-1.220283 -0.28739,-1.642456 -0.0605,-1.642456 0.0396,0 0.72116,0.388881 1.51438,0.864248 m 12.51258,-0.806296 c 0,0.03181 -0.1327,0.703022 -0.29497,1.491626 -0.34935,1.697746 -0.52039,2.079791 -0.86811,1.939511 -0.13671,-0.05512 -0.58295,-0.198378 -0.9916,-0.318152 -1.30767,-0.383678 -2.00607,-0.680584 -2.00607,-0.852806 0,-0.09213 0.25082,-0.28412 0.55723,-0.426326 0.30656,-0.142361 0.79129,-0.395871 1.07734,-0.563485 1.04777,-0.614163 1.27186,-0.74849 1.70889,-1.024734 0.41251,-0.260939 0.81729,-0.382492 0.81729,-0.245634 m 84.03243,0.551895 c -0.53139,0.11486 -5.06364,0.88386 -6.98414,1.185073 -1.1705,0.183658 -5.08145,0.858894 -6.38972,1.103196 -1.51482,0.282924 -1.88795,0.346379 -2.11753,0.36005 -0.14369,0.0086 -0.18575,0.902883 -0.18575,3.945882 v 3.934739 l 0.44892,-0.256924 c 0.40909,-0.234336 1.67455,-1.039302 7.1296,-4.535677 1.02161,-0.654721 2.42587,-1.553889 3.12058,-1.998048 3.41405,-2.182763 5.30957,-3.406326 5.64286,-3.642304 0.39588,-0.280402 0.2718,-0.298235 -0.66482,-0.09599 m -119.91896,0.799451 c -1.65004,0.290508 -8.86984,1.528335 -9.3617,1.605014 -0.40137,0.06251 -3.23781,0.553382 -4.75515,0.82279 l -0.59439,0.105501 -0.0743,3.838455 c -0.0409,2.111132 -0.0199,3.871886 0.0465,3.912891 0.0664,0.04093 0.23359,-0.02115 0.37148,-0.137752 0.13791,-0.11679 1.35404,-0.903777 2.70257,-1.749001 2.47327,-1.550028 3.38804,-2.135507 6.58054,-4.210836 0.96292,-0.626192 1.7762,-1.138414 1.80696,-1.138414 0.0309,0 0.5941,-0.350988 1.25149,-0.780134 0.65755,-0.429155 1.73162,-1.114494 2.38679,-1.523142 1.64231,-1.024281 1.60932,-1.092199 -0.3608,-0.745372 m 30.46269,2.915952 c 0.53807,0.219031 2.96365,1.001848 3.38062,1.091158 0.56853,0.121553 0.53049,0.472696 -0.21161,1.956449 -0.90006,1.799678 -1.95793,3.137356 -3.07108,3.883476 -0.81655,0.547286 -1.04837,0.63154 -1.73904,0.63154 -0.987,0 -1.41571,-0.179359 -2.40998,-1.008538 -0.9965,-0.830958 -1.95734,-2.178756 -2.73228,-3.832204 -0.57834,-1.234113 -0.59603,-1.312718 -0.33999,-1.499953 0.14874,-0.10863 0.37461,-0.198378 0.50196,-0.199126 0.1275,-6.71e-4 0.90036,-0.23983 1.71765,-0.531095 0.8173,-0.291248 1.65316,-0.584732 1.85748,-0.652193 0.20433,-0.0675 0.60197,-0.222454 0.88357,-0.344454 0.47165,-0.20432 0.56527,-0.197931 1.18879,0.081 0.37224,0.166574 0.81045,0.357369 0.97391,0.423945"
       stroke="none"
       fill="#000000"
       fill-rule="evenodd"
       id="path2"
       sodipodi:nodetypes="ccscccccsccscccsccssscccccssscssscssccccsssccccccccccscccsscsscccssccscccsssscccccscscssscccsscccccscscscccccsccccccssccccccscscscccsscscccssccssccccccccsscccccscccccccsccccccccccccsscccsscccsccsscccccccccsccsssccssccscscccccssccccscssscccccsccccccscccccccccccccccsccsccccscccccccscscsccccsccccccccscccssscccccsccsscccscccsccscssscsccccscscsscccccccscccscssccccsccscccccccsscccccscsscccccccccccccscccccccccccccscccccccccccccccssccccsscscssccsccccccccccccssccsccccsccccccscccccccccscccscssccsccscccccsscccccccsssccsccssccccccsccccccscccccccccccccccccscccccccsscccccsssscccsscscccccccccccscccccccccccccccccccccccsscsscccscsscccsscccscssccccscccccccccccccccccsccsscccccccccccccccccccccscccccccccscccccscccscccsscccscccsscccccccccsccccccccccccccccsscccccccccccccccccscccscccccccccccscssccsccsccccccsscccccscccscsccscccscccsccccccccccscsccccscccsccccccsccccccscccccccccccsccsscsccccccccscccscccsccsccccsccccccssccccssscc"
       style="fill:#ff7f2a;fill-opacity:1;stroke-width:0.148599" /></g></svg>
